<?xml version="1.0"?><svg xmlns="http://www.w3.org/2000/svg" version="1.2" baseProfile="tiny" width="1080" height="1080" viewBox="-73.9856 -5.2673 39.192400000000006 39.011199999999995" stroke-linecap="round" stroke-linejoin="round"><g id="BRUF" fill="#dcefe2" stroke="#ffffff" stroke-opacity="0.92" stroke-width="150" transform="scale(0.0001,-0.0001)"><path id="24" d="M-370036,-67096l445,-737l489,264l752,258l1048,-1053l-298,-781l226,-583l825,446l870,534l77,340l165,-13l102,1086l128,1229l825,-187l-433,1087l-467,413l238,928l1604,840l490,104l159,-255l-172,-528l698,-636l520,32l780,105l4,1l1309,-642l948,-42l905,53l66,5l1086,328l279,-44l554,-297l1393,-25l343,-30l433,-224l232,-266l1169,170l304,-287l482,-25l333,477l1440,179l-634,1764l-15,244l-605,1030l-39,436l-232,1581l-331,839l-495,1546l-235,1311l-287,952l-702,1356l-564,1113l-1071,1130l-1276,430l-1738,366l-1174,179l-1292,80l-620,-257l-2088,-249l-985,214l-3088,-2l-1401,1086l-1043,537l-1786,-293l-824,665l-317,500l-1042,-267l-895,-229l-207,-49l-1732,-405l-369,-1265l-479,-177l-631,-1486l17,-44l1,-733l-264,-197l-894,-1841l-1256,-1220l-550,-497l242,-825l-1007,-1697l-42,-143l-887,-713l-227,-556l-647,-119l-652,204l-612,-641l-537,-1016l-507,-700l79,-627l1041,255l104,-732l1042,-533l551,-489l597,223l1088,-391l493,585l441,-109l1074,632l762,785l666,872l676,689l928,8l943,244l1431,667l1223,566l826,-195l170,-1045l-767,-606l-1004,-952l-548,-827l76,-461l-835,-956l-200,-1773l1704,210l504,-432l293,-924l824,262l768,443l401,199l317,246Z" /><path id="42" d="M-499557,-289489l-19,-1193l-587,-1146l-1215,-109l-68,-765l1036,-849l70,55l-803,920l1567,581l560,-158l1099,-703l788,-400l678,872l1287,1423l1395,1396l868,733l1022,810l3299,1865l1115,1106l402,1637l606,1066l114,1218l134,1681l339,405l104,604l590,625l1470,3317l-466,692l-1091,-277l-169,1103l-516,-181l-79,982l243,64l831,130l-127,880l-776,-344l-35,839l-392,1009l-139,474l210,865l-401,550l-206,528l171,1375l141,336l564,951l909,2159l-660,686l-259,1909l-831,-27l-2843,-10l123,-95l-2841,-407l-1263,-1067l-683,-333l-574,-150l-7,-85l-1159,-325l-874,372l-1741,1537l-695,169l-607,75l-1950,-586l-786,273l-973,-694l-60,329l-1985,772l-583,-608l-685,-1184l-63,-68l-1669,-540l-295,-473l-893,529l-899,90l-1279,-688l-460,-549l-176,-358l-300,-308l783,-1760l-168,-342l-1522,-353l-204,-539l-994,1360l-3131,-8l-2051,350l-1297,807l-2838,281l-806,385l-338,-82l-880,269l-559,230l-619,43l-1449,-62l-300,-24l-903,-80l-1322,196l-80,14l-1741,1001l-885,-329l-650,-208l-1432,520l-498,-1778l4,-147l-325,-945l-98,-629l163,-1501l371,-931l19,-489l37,-500l-610,-614l-1044,-1642l174,-73l1020,-68l1180,-69l519,130l596,-174l1328,825l592,-211l-263,-775l1348,176l1165,353l-55,492l589,147l253,-469l213,-778l1199,475l503,-331l155,-26l940,-784l1469,438l83,-195l1038,423l133,-646l214,-101l980,-266l385,622l365,-737l447,540l730,-668l581,-29l656,-288l-251,-270l1503,-730l198,-479l504,82l868,350l686,-88l542,-884l308,179l903,-484l760,-180l725,-940l355,-160l2199,-1334l-33,-179l552,-764l231,150l1031,-931l-276,-472l1088,-501l450,-1099l535,-214l817,-1237l1891,-397l3561,-459l979,390l1536,-299l903,-488l238,-1100l-10,-11l-785,202l-576,-1032l-945,-127l-162,-1678l-48,-554Z" /><path id="43" d="M-526915,-272844l-940,784l-155,26l-503,331l-1199,-475l-213,778l-253,469l-589,-147l55,-492l-1165,-353l-1348,-176l263,775l-592,211l-1328,-825l-596,174l-519,-130l-1180,69l-1020,68l-174,73l-1095,171l-1084,-1127l-565,-385l-751,376l-308,-1201l-683,-629l-1257,426l-632,-759l-1148,230l-426,-875l-914,-178l-937,279l-858,-1633l-982,-940l-506,-595l-876,-427l-634,372l-751,-750l-622,-336l-364,-685l-631,-528l-1247,-757l-2070,-780l1020,-993l-230,-756l-1584,610l-334,-1238l-1392,-436l208,-555l-1918,-1969l-1055,-329l-236,-1166l-557,-233l-514,-1315l-1584,-403l-757,-1752l-1155,-1250l-1911,-2234l-1608,-1268l-1035,-106l-943,-1068l16,-843l-1365,-1384l-1295,-687l261,-732l1786,-503l780,444l1072,-270l890,1714l2648,248l1923,-1124l1120,-1593l839,-239l841,-1170l882,-308l1022,-724l376,-1008l1265,-802l125,-2959l1403,100l2046,1176l31,821l845,390l1416,-1718l856,-329l1046,-2146l1723,-799l387,482l1993,-1580l1352,62l1144,-208l1140,-1139l183,-824l3666,-2784l1405,-234l2219,-1438l491,-1397l325,-1468l2071,-1633l2605,-1103l1790,673l294,1007l1656,435l782,770l-969,359l1022,1799l960,86l-655,-1739l861,-1411l-186,-1773l-1025,-1960l-1088,-811l-1694,1175l-1223,37l-505,-2097l-858,-1039l-651,422l-1439,-1902l444,-1822l-408,-1204l-422,269l-150,-1582l1008,-545l520,-1l2138,1538l3795,3070l1528,1789l1287,2370l723,2384l1299,2905l1958,1766l5,1576l-1221,450l1040,171l-1418,922l330,609l712,896l1164,35l225,986l33,963l907,1901l1077,251l1927,167l-96,1160l909,380l958,276l-573,1116l505,1036l761,-3l-316,896l234,1394l621,-26l534,1663l423,600l873,-170l-743,1355l-852,-16l-330,765l268,1726l290,152l113,-842l1043,-1168l940,-200l73,-1324l1256,-438l152,1094l1178,-120l94,498l1315,26l353,876l782,-539l-401,-2378l-1468,1220l431,-1327l-37,-2061l-637,-1120l-1508,-851l-622,79l122,-1071l-2244,-1310l215,-1505l-800,-1727l-1236,-746l-671,400l-2305,-2749l-1790,-341l-651,-695l-1163,545l-790,-199l829,-865l-620,-2208l2463,2240l4037,2236l2412,1912l3439,3144l749,799l4329,6093l824,1959l278,686l538,1392l511,1209l439,917l116,245l461,875l839,1474l115,179l1187,1636l906,1180l-788,400l-1099,703l-560,158l-1567,-581l803,-920l-70,-55l-1036,849l68,765l1215,109l587,1146l19,1193l48,554l162,1678l945,127l576,1032l785,-202l10,11l-238,1100l-903,488l-1536,299l-979,-390l-3561,459l-1891,397l-817,1237l-535,214l-450,1099l-1088,501l276,472l-1031,931l-231,-150l-552,764l33,179l-2199,1334l-355,160l-725,940l-760,180l-903,484l-308,-179l-542,884l-686,88l-868,-350l-504,-82l-198,479l-1503,730l251,270l-656,288l-581,29l-730,668l-447,-540l-365,737l-385,-622l-980,266l-214,101l-133,646l-1038,-423l-83,195l-1469,-438Z" /><path id="31" d="M-474896,-199693l493,-795l1111,-665l981,-1039l-15,-83l-441,-641l-168,-1271l700,-724l793,-497l65,-203l-51,-45l418,-1164l-852,-494l-407,-1241l-5,-10l461,-973l334,-817l303,-1177l-9,-327l743,-815l475,-899l-148,-650l1269,151l1042,373l157,98l1171,-195l319,-494l1068,-601l-29,-763l-429,-880l-598,-231l-162,-921l-600,-690l728,-1574l-320,-145l-696,-738l1210,-531l-471,-442l-262,23l-85,-382l-430,-901l624,-594l446,-726l664,-309l934,-522l322,-777l312,-636l-800,-420l1405,-611l-419,-541l296,-850l1527,400l531,-576l884,258l942,472l853,-219l1032,352l558,667l-929,325l1111,856l-360,330l513,454l125,-779l897,495l-39,-512l1000,624l600,-307l204,-325l1309,423l1023,807l424,335l216,73l1369,147l1220,474l345,222l0,13l59,106l1376,210l40,-78l1182,482l866,747l975,36l997,-140l707,276l98,119l2023,821l2127,832l555,-126l405,-103l770,303l1544,-42l903,562l201,-40l989,-210l965,-4l6,-58l-117,-694l1401,716l926,421l2443,1174l593,269l1428,602l35,14l820,364l1111,339l-1030,744l169,484l67,90l914,957l-208,595l398,846l114,51l216,1166l73,609l208,285l560,570l384,446l-47,72l-662,490l1751,385l462,919l15,496l535,281l240,747l464,1528l-211,551l259,63l-39,548l-332,131l-229,362l374,620l471,508l182,532l908,-1l2504,-4l37,13l1028,1897l112,788l265,-46l844,507l124,1243l61,950l1316,1017l-98,831l745,-179l58,817l587,1148l-246,576l-31,285l-289,1006l-965,656l-42,1117l-721,542l-1061,368l108,565l856,-7l1214,-392l1086,217l-247,1248l-1094,565l251,1066l28,703l-1588,177l376,343l-147,971l1070,1431l1602,562l1202,-470l-18,483l-1291,1214l1039,293l1365,-558l1350,1208l1586,-310l1460,-575l105,855l378,433l-465,1139l-196,28l-1039,1193l-704,55l-685,1216l-365,411l-852,912l569,725l-309,1341l70,837l794,1785h587l259,-113l64,85l1197,-110l125,1054l-667,161l288,829l-62,182l377,1052l1176,-61l477,1302l930,1015l994,635l-179,404l789,1301l-580,1138l-896,-18l-1231,947l-1082,1036l-1893,-22l-250,441l-698,-360l-1251,687l-557,616l-671,-468l-491,665l-858,-442l-605,434l-430,-654l-1364,-582l-1877,287l-120,1047l-197,1436l-24,20l-918,827l-3039,2724l-423,376l-80,-11l-1431,-743l-951,50l-1248,847l-923,-390l-120,113l-1653,524l-361,471l-367,313l-1030,432l-2534,1750l-668,567l-2361,569l-1362,-186l-1758,-1206l-432,-255l-8,4l-106,363l-1705,632l-1714,634l23,901l628,1747l352,485l-1864,652l-761,-98l-2503,306l-1158,-284l-1454,-554l-1842,-1301l-918,-327l-438,-994l-1633,-813l-555,-725l-1098,83l-1001,-890l-1844,-1271l-775,150l-493,-683l-1229,-1063l-2319,-335l-1054,-1108l-394,599l687,411l817,1981l-715,909l-18,-6l-1374,-741l-1425,490l-29,858l-1812,1105l-571,-1109l578,-2359l-234,-55l-993,-331l-2315,792l-682,-472l368,-550l-490,-925l636,-804l242,-878l-810,-699l-156,-1202l635,-468l764,-2605l-1463,-460l-1502,-423l-339,315l-811,-866l-923,-223l15,-137l-420,-797l279,-794l-1318,-2555l417,-1098l1172,-514l698,-947l173,-1542l810,-1040l-547,-853l-1699,-1025l-1366,-1822l-222,226l-138,-858l-120,-452l697,-769l1538,-94l483,-680l-1064,-2199l878,-2095l-1245,-1011l-219,-233l-1772,-810l-32,-695l-695,-404l-898,-622l-910,-219l-41,-89l-900,-509l-724,639l-838,75l-1164,826l-446,166l-700,-414l-1446,-41l-750,510l-924,-189l-1334,-104l-1305,473l-418,-176l-943,-791l-1520,-115l-435,-1087l-434,-411l-807,-709l-1128,1025l-614,-73l-1754,-698l-347,-3l-369,-341l-2342,423l-510,-704l-1902,-123l-823,-761l-1209,-1611l-620,-1775l-1105,-359l-874,-522l-73,-262l-876,-976l-474,-1120l498,-505l-1094,58l44,-1228l-1076,-1015l47,-989l340,-1157l-10,-1790l1145,950l419,228l1577,514l722,552l522,474l1079,274l1167,-833l1656,-60l656,12l621,-421l1379,-208l1568,125l1362,47l1097,1l497,-582l2037,88l-558,-1476l407,-1128l55,-291l761,-559l629,442l548,1170l799,-173l230,-2323l765,-338l194,380l-200,1236l650,1138l925,112l827,-167l1095,334l858,77l2330,-20l152,824l1266,-1029l956,1120l818,-893l296,495l189,864l883,38l1229,-612l905,534l596,245Z" /><path id="52" d="M-514484,-191604l3564,-1472l1570,-1599l1094,-58l-498,505l474,1120l876,976l73,262l874,522l1105,359l620,1775l1209,1611l823,761l1902,123l510,704l2342,-423l369,341l347,3l1754,698l614,73l1128,-1025l807,709l434,411l435,1087l1520,115l943,791l418,176l1305,-473l1334,104l924,189l750,-510l1446,41l700,414l446,-166l1164,-826l838,-75l724,-639l900,509l41,89l910,219l898,622l695,404l32,695l1772,810l219,233l1245,1011l-878,2095l1064,2199l-483,680l-1538,94l-697,769l120,452l138,858l222,-226l1366,1822l1699,1025l547,853l-810,1040l-173,1542l-698,947l-1172,514l-417,1098l1318,2555l-279,794l420,797l-3751,2l-2550,-1l-792,2h-670l-1930,1l264,939l-304,1251l738,1127l-269,579l349,1577l1457,1l5616,3l1718,-847l61,-1615l-639,-1361l100,-1190l587,-331l923,223l811,866l339,-315l1502,423l1463,460l-764,2605l-635,468l156,1202l810,699l-242,878l-636,804l490,925l-368,550l682,472l2315,-792l993,331l234,55l-578,2359l571,1109l1812,-1105l29,-858l1425,-490l1374,741l368,795l-225,1177l41,82l321,141l-112,2092l929,914l-1529,1233l-1240,750l-429,1079l149,389l-521,627l317,988l-450,577l418,828l730,1045l-848,249l385,1131l-395,296l1802,1406l-349,379l-1893,-594l-352,640l290,1891l1740,1040l117,418l-2514,-727l-95,1393l-441,290l-279,-1134l-87,-354l-1808,13l-1152,7l-1042,-984l-1527,-702l-2449,-748l-290,-521l-1115,23l-846,752l-875,69l-37,634l-484,133l-480,-1148l428,-1503l-574,-995l-1185,1392l-1686,140l-1077,760l-954,-613l262,1478l-886,-172l-2266,-1107l-136,1398l-436,15l-640,-1742l42,1891l-688,1132l-878,271l-26,628l-1352,1178l-95,-138l-964,-1408l-1031,540l-384,1138l-1200,-937l-1179,-2723l-127,-1162l-5405,2972l-2379,719l-1641,1116l660,1941l514,337l-218,818l734,866l-1637,-970l-1287,-1570l-768,-2115l-598,-1733l-403,-2860l-528,-1148l-951,-853l-498,-1771l-651,-371l337,-1892l-13,-1806l-685,-441l-879,-2654l337,-1145l-1254,-3119l25,-811l-1888,-1225l-628,687l-112,-152l-1842,-749l-1133,-1083l-441,-1514l-75,-1600l-817,-615l128,-1072l-1124,-1707l-918,-138l-374,-477l-2448,-79l-1067,-1879l-1107,-451l-736,-959l-1359,-791l-115,-647l866,-1196l-233,-318l-1034,-681l175,-511l-1171,-1352l-816,-405l-151,-249l-850,-267l-451,-2125l-523,-318l-1058,-1882l201,-815l-448,-1259l16,-958l52,-1128l712,-529l917,-2683l-709,-501l435,-2295l766,-359l578,506l1445,-118l619,-524l-796,-605l-1264,-1264l438,-634l477,-325l1253,-462l2462,162l900,-681l781,-851l1507,-185l1037,-1035l1387,-171l885,-843l1601,-655l1529,-247l908,-177Z" /><path id="35" d="M-503592,-229161l190,-320l1343,-37l728,119l803,344l786,-490l17,-40l1388,-1074l143,-111l98,-109l931,-605l894,-1334l-105,-685l395,-1079l-261,-651l221,-1288l274,-239l150,-1176l-483,-458l715,-884l142,112l351,-1080l1506,-1130l-141,-832l965,-971l7,-871l11,-289l19,-115l-655,-1101l40,-1080l1041,-374l500,290l275,-97l2181,76l1015,-10l2096,59l631,-571l-283,-1906l-315,-861l693,-979l1167,1204l878,-563l844,453l1423,-3188l13,13l1820,1495l46,1065l1780,1723l3162,2050l3374,2274l840,1228l963,725l1889,1091l1043,541l2125,911l368,275l488,-220l1215,9l516,1357l670,419l2238,564l2873,-368l405,-471l1183,340l-307,997l204,845l1299,456l651,-47l1447,904l1587,1584l640,-528l1200,194l-1584,1649l582,400l325,1808l1532,677l92,93l1349,581l1765,17l1525,1717l-608,688l-1157,153l-192,-233l-1031,-32l-1815,119l-423,824l-1212,1159l-345,-222l-1220,-474l-1369,-147l-216,-73l-424,-335l-1023,-807l-1309,-423l-204,325l-600,307l-1000,-624l39,512l-897,-495l-125,779l-513,-454l360,-330l-1111,-856l929,-325l-558,-667l-1032,-352l-853,219l-942,-472l-884,-258l-531,576l-1527,-400l-296,850l419,541l-1405,611l800,420l-312,636l-322,777l-934,522l-664,309l-446,726l-624,594l430,901l85,382l262,-23l471,442l-1210,531l696,738l320,145l-728,1574l600,690l162,921l598,231l429,880l29,763l-1068,601l-319,494l-1171,195l-157,-98l-1042,-373l-1269,-151l148,650l-475,899l-743,815l9,327l-303,1177l-334,817l-461,973l5,10l407,1241l852,494l-418,1164l51,45l-65,203l-793,497l-700,724l168,1271l441,641l15,83l-981,1039l-1111,665l-493,795l-596,-245l-905,-534l-1229,612l-883,-38l-189,-864l-296,-495l-818,893l-956,-1120l-1266,1029l-152,-824l-2330,20l-858,-77l-1095,-334l-827,167l-925,-112l-650,-1138l200,-1236l-194,-380l-765,338l-230,2323l-799,173l-548,-1170l-629,-442l-761,559l-55,291l-407,1128l558,1476l-2037,-88l-497,582l-1097,-1l-1362,-47l-1568,-125l-1379,208l-621,421l-656,-12l-1656,60l-1167,833l-1079,-274l-522,-474l-722,-552l-1577,-514l-419,-228l-1145,-950l-7,-109l-1082,-1838l-2341,-755l-753,-1094l-1488,-1533l-76,-51l-597,-1314l113,-1896l-901,-271l-588,-796l-1072,-1468l186,-1388l-1011,-1566l-949,-103l-451,-662l464,-1074l-1055,-936l-281,-735l-1296,-1278l-729,-1426l-643,-706l-1990,-1178l-2930,-1703l-1256,-755l-314,-730l597,-28l338,259l870,332l1418,-365l189,-66l669,-183l1078,609l515,-499l909,75l241,-16l1328,-181l1072,-272l305,862l167,423l1027,-123l45,-3l1229,-588l153,-149l336,-185l850,176l534,-549l895,109l8,-1l1107,-318l708,370l1133,-141l349,-64l845,-502l377,-151l1716,-549l257,111l510,-151l1041,-684l277,-851l1586,443l601,29l504,-308l1676,187M-452703,-238748l400,968l-1112,502l-242,-812l-964,-797l178,-454l1740,593Z" /><path id="41" d="M-527009,-263579l559,-230l880,-269l338,82l806,-385l2838,-281l1297,-807l2051,-350l3131,8l994,-1360l204,539l1522,353l168,342l-783,1760l300,308l176,358l460,549l1279,688l899,-90l893,-529l295,473l1669,540l63,68l685,1184l583,608l1985,-772l60,-329l973,694l786,-273l1950,586l607,-75l695,-169l1741,-1537l874,-372l1159,325l7,85l574,150l683,333l1263,1067l2841,407l-123,95l2843,10l831,27l457,1245l725,1386l1242,1277l432,927l957,203l1166,1628l-1423,3188l-844,-453l-878,563l-1167,-1204l-693,979l315,861l283,1906l-631,571l-2096,-59l-1015,10l-2181,-76l-275,97l-500,-290l-1041,374l-40,1080l655,1101l-19,115l-11,289l-7,871l-965,971l141,832l-1506,1130l-351,1080l-142,-112l-715,884l483,458l-150,1176l-274,239l-221,1288l261,651l-395,1079l105,685l-894,1334l-931,605l-98,109l-143,111l-1388,1074l-17,40l-786,490l-803,-344l-728,-119l-1343,37l-190,320l-1676,-187l-504,308l-601,-29l-1586,-443l-277,851l-1041,684l-510,151l-257,-111l-1716,549l-377,151l-845,502l-349,64l-1133,141l-708,-370l-1107,318l-8,1l-895,-109l-534,549l-850,-176l-336,185l-153,149l-1229,588l-45,3l-1027,123l-167,-423l-305,-862l-1072,272l-1328,181l-241,16l-909,-75l-515,499l-1078,-609l-669,183l-189,66l-1418,365l-870,-332l-338,-259l-597,28l-227,-304l-1121,-812l-874,-311l-830,-493l-1364,-762l-872,-1133l-26,-1216l-783,-1584l-473,-759l-1980,-841l-704,-1848l-205,-590l-319,-1148l-10,-630l-850,-1340l-1172,-692l-594,-888l840,-2180l-340,-526l-229,-1627l-84,-692l-56,-357l-574,-821l-655,-2568l305,-1192l-487,-582l-1455,-2392l256,-1415l1482,-735l1490,1081l1199,-268l324,634l1528,-651l1414,-1047l67,-796l242,-1419l-179,-576l973,-715l674,-1348l189,-291l142,-455l1432,-520l650,208l885,329l1741,-1001l80,-14l1322,-196l903,80l300,24l1449,62l619,-43Z" /><path id="29" d="M-436060,-93516l-1762,-1011l-40,-49l-635,-905l648,-2143l1324,-812l-557,-762l155,-1396l-665,-152l-777,-2276l-790,-909l-743,-249l-932,-1711l-821,-538l-1012,197l-777,735l-1561,-1000l-773,229l-910,-603l20,-718l-1213,-496l-757,-767l-809,-338l-1374,795l-1639,170l-1685,1774l-329,1357l514,644l-947,1440l-659,841l-466,1089l-1203,-474l242,-1032l-989,-646l-220,-1329l-3074,-1645l-786,-1799l-543,-115l-68,-1228l-743,-42l-2114,-3264l-69,-1062l358,-919l848,-575l896,148l2369,-998l319,-180l-636,-3l-2172,-67l539,-556l-708,-620l410,-645l-434,-500l682,-780l-761,-1077l177,-509l-4,-2501l816,-272l234,-1297l684,27l-985,-717l143,-1882l-456,-1908l2150,367l-117,-418l-1740,-1040l-290,-1891l352,-640l1893,594l349,-379l-1802,-1406l395,-296l-385,-1131l848,-249l-730,-1045l-418,-828l450,-577l-317,-988l521,-627l-149,-389l429,-1079l1240,-750l1529,-1233l-929,-914l112,-2092l-321,-141l-41,-82l225,-1177l-368,-795l18,6l715,-909l-817,-1981l-687,-411l394,-599l1054,1108l2319,335l1229,1063l493,683l775,-150l1844,1271l1001,890l1098,-83l555,725l1633,813l438,994l918,327l1842,1301l1454,554l1158,284l2503,-306l761,98l1864,-652l-352,-485l-628,-1747l-23,-901l1714,-634l1705,-632l106,-363l8,-4l432,255l1758,1206l1362,186l2361,-569l668,-567l2534,-1750l1030,-432l367,-313l361,-471l1653,-524l120,-113l923,390l1248,-847l951,-50l1431,743l80,11l423,-376l3039,-2724l918,-827l24,-20l197,-1436l120,-1047l1877,-287l1364,582l430,654l605,-434l858,442l491,-665l671,468l557,-616l1251,-687l698,360l250,-441l1893,22l1082,-1036l1231,-947l896,18l580,-1138l-789,-1301l179,-404l-994,-635l-930,-1015l-477,-1302l-1176,61l-377,-1052l62,-182l-288,-829l667,-161l-125,-1054l-1197,110l-64,-85l-259,113h-587l-794,-1785l-70,-837l309,-1341l-569,-725l852,-912l365,-411l685,-1216l704,-55l1039,-1193l196,-28l465,-1139l-378,-433l-105,-855l20,-12l3086,-1974l2440,-1582l324,1049l1442,2344l2337,1699l1202,1430l-388,544l-156,1846l-204,2847l946,2688l-241,1310l378,634l417,2623l533,901l-23,999l627,1534l956,2430l-408,827l-413,1013l-383,2799l-231,3003l-311,3022l-348,360l279,2317l166,968l288,2011l601,3106l-229,344l-161,236l-44,64l-162,1256l199,447l774,316l-418,945l405,854l-584,707l320,1763l1213,761l1542,1222l577,26l1169,-22l1644,1040l241,302l2500,2835l1369,1890l1234,1695l842,1397l1729,3583l1717,2984l-266,-163l-878,-645l-1231,-291l-537,341l-407,-505l-1270,472l-330,392l-1492,1343l-120,45l129,1442l-656,176l-591,1558l-746,830l-297,118l-265,1228l223,831l696,71l1028,172l696,-563l1626,683l36,883l-90,832l-324,738l83,622l961,429l-254,492l30,932l-139,624l-112,1007l-1113,1140l-1014,142l-575,3171l577,726l-745,739l-1272,244l-99,637l-227,232l-753,1814l-106,1584l-800,-472l-1105,772l442,943l-1006,353l-399,-1269l-833,386l-129,564l-1484,778l-975,-200l-1121,729l-1640,213l-441,1265l-842,363l-1193,-453l-1699,-669l-428,-12l155,-1240l-2197,-439l186,-1079l-1040,-1182l-265,-49l-1250,-505l-789,465l-644,-186l-363,-1931l-469,-1015l-617,249l-2051,-1308l-909,376l-531,-1l973,2593l-1511,1062l-300,1257l-1080,1122l-1444,616l-103,766l-1646,-315l-800,277l-230,3l-301,-671l-1342,-1673l-1780,-718l-91,-742l-1223,-1528l-589,-366l-1553,196l-1569,-258l-900,-333l-1770,-1783l-1098,-219l-872,-291l-799,-733l-1814,1088l-73,820l-1006,314l-152,-30l-1441,-6l-665,-194l-1530,1539l-1028,-421l-651,-434Z" /><path id="22" d="M-423999,-34748l-704,-90l-261,379l-663,-1135l-540,-513l-164,-214l-504,-624l120,-971l-502,-928l-689,-947l-654,-1003l-868,-879l-436,-532l221,-1402l157,-248l770,-426l51,-1382l-866,-1211l604,-2006l29,-67l908,-2950l-168,-1283l-1526,-1355l-358,-892l-907,-722l198,-2501l-213,-447l473,-1919l707,-369l1311,-1397l-391,-2264l-287,-1434l-777,-1007l-1548,-350l-1003,160l-1433,-665l-634,-118l-340,245l-1489,1019l-1163,161l-1767,-676l-263,279l-1595,-626l-1330,-1947l-267,-576l-369,-605l-732,-23l-1792,-1078l-1251,-1671l-1269,343l-1680,-1195l-40,-14l-963,-199l-1357,-661l-1194,-134l-1151,-882l-825,-1916l175,-257l-629,-2696l-799,-936l-428,-1371l-474,-1545l-870,-1737l-976,-710l-567,-1402l589,-1113l425,-3043l946,-756l80,-646l-508,-801l122,-1170l-363,-1917l235,-679l-360,-1708l-678,-1482l-661,78l413,-1082l602,-122l142,1068l1527,243l205,846l1203,474l466,-1089l659,-841l947,-1440l-514,-644l329,-1357l1685,-1774l1639,-170l1374,-795l809,338l757,767l1213,496l-20,718l910,603l773,-229l1561,1000l777,-735l1012,-197l821,538l932,1711l743,249l790,909l777,2276l665,152l-155,1396l557,762l-1324,812l-648,2143l635,905l40,49l1762,1011l651,434l1028,421l1530,-1539l665,194l1441,6l152,30l1006,-314l73,-820l1814,-1088l799,733l872,291l1098,219l1770,1783l900,333l1569,258l1553,-196l589,366l1223,1528l91,742l1780,718l1342,1673l301,671l230,-3l1518,743l570,994l1710,1352l516,-476l651,756l817,744l-28,422l718,290l1354,1946l0,1l150,331l168,357l-110,1432l-1187,567l518,1034l-931,1777l626,473l1038,406l248,742l176,1076l467,1324l344,1432l545,1321l-617,-98l-447,802l-2333,567l-263,762l-534,993l108,1593l-731,1171l-55,1188l-486,589l327,734l-363,2089l21,1219l-220,1485l-72,551l253,1720l-173,950l-1511,806l-416,651l-1279,1563l164,596l-171,535l753,913l-648,918l622,1058l291,1011l291,423l207,1431l6,7l-413,595l262,712l-697,318l-460,499l-168,717l-312,708l376,1128l-949,288l-330,1223l642,695l-210,1063l-904,360l922,1713l613,1248l-98,821l-520,504l-1135,153l-1763,95l-371,321l-1322,1061l-442,10l-400,-1127l316,-456l377,-450l-724,-997l-266,-336l-58,-33l-349,-538l-415,-668l-19,18l-58,-65l-1380,-443l-22,-796l-759,-849l-710,-134l-1272,-301M-417469,-47029l515,-630l-512,626l-3,4M-417487,-45906l193,8l-159,-6l-34,-2l-118,-352l107,318l11,34Z" /><path id="25" d="M-348987,-68659l-261,983l-67,465l-335,1182l-35,1157l-1440,-179l-333,-477l-482,25l-304,287l-1169,-170l-232,266l-433,224l-343,30l-1393,25l-554,297l-279,44l-1086,-328l-66,-5l-905,-53l-948,42l-1309,642l-4,-1l-780,-105l-520,-32l-698,636l172,528l-159,255l-490,-104l-1604,-840l-238,-928l467,-413l433,-1087l-825,187l-128,-1229l-102,-1086l-165,13l-77,-340l-870,-534l-825,-446l-226,583l298,781l-1048,1053l-752,-258l-489,-264l-445,737l-317,-246l-401,-199l-768,-443l-824,-262l-293,924l-504,432l-1704,-210l200,1773l835,956l-76,461l548,827l1004,952l767,606l-170,1045l-826,195l-1223,-566l-1431,-667l-943,-244l-928,-8l-676,-689l-666,-872l-762,-785l-1074,-632l-441,109l-493,-585l-1088,391l-597,-223l-551,489l-1042,533l-104,732l-1041,-255l241,-656l-723,-1108l36,26l-420,-981l-234,-786l202,-507l384,-255l-578,-647l-933,-634l2,-836l910,-521l40,-15l-180,-1425l436,64l242,-363l656,-318l50,-831l-1336,-2437l-321,-432l1215,-1324l1365,362l229,-24l792,421l441,-607l241,-911l649,98l905,246l113,-232l506,467l688,-67l429,128l545,681l1361,409l139,314l76,165l108,121l1150,713l481,368l501,496l899,828h461l717,673l533,152l838,-354l1237,-699l395,-243l283,-718l-398,-211l-5,-3l-536,-196l-1186,-1187l369,-627l108,-189l-18,-629l-187,-204l-1795,-1484l2006,-751l54,-1013l-160,-454l1396,-1193l661,-95l462,461l1205,633l1008,341l584,446l167,1632l393,119l361,344l902,-148l469,1060l1359,-213l469,676l898,-201l1052,-260l183,-26l599,228l624,237l557,167l354,92l1100,368l604,411l925,174l251,1326l70,286l605,131l715,280l203,208l97,67l527,276l1264,-48l1684,-695l3,-380l1313,-396l199,-90l312,1607l-31,1434l126,899l-492,986l-166,263l-101,516l-296,1122Z" /><path id="21" d="M-426415,-26253l-549,515l-1323,304l-1861,867l-2226,980l-742,200l-665,-35l-1052,-431l216,-1011l-757,645l-412,-842l-1182,-88l-444,798l966,338l503,1186l-1261,-87l-415,-1273l-762,20l-121,-933l-810,-516l-1476,-1822l-696,-243l-1174,77l901,583l829,1274l566,180l-161,906l205,598l-1420,-517l-134,-42l-336,-117l-838,-136l-1054,-3117l-148,-1447l-707,-821l-526,-191l-435,42l-709,280l105,1199l19,880l948,2085l1673,1876l300,684l-403,1255l-643,700l-1818,-1513l-333,158l1804,2552l-804,-39l956,409l-696,998l176,663l-812,589l-1441,-197l578,580l-982,207l1635,877l-871,599l-1303,-608l-362,139l-282,626l738,519l-161,778l-927,-1487l-551,744l-1878,-25l-722,-1105l-556,16l152,2641l-537,140l-303,-954l-829,-655l-389,1717l-964,335l-791,10l-907,804l-679,-202l-54,1606l-1001,-1494l-406,1492l-1095,-1490l-575,-799l579,-554l-724,-1401l148,-1454l-499,-1044l-1040,-144l52,-647l990,-248l-124,-838l-398,-1344l-201,-1051l-1330,-1194l-231,-1394l36,-577l165,-615l-824,-144l-51,-701l-993,-226l-635,-951l800,-1112l-915,-478l312,-1024l-266,-981l-924,-824l-433,-1256l-1321,-751l-42,-996l-898,-875l77,-403l-581,-2570l-1065,-1240l-1235,-620l-285,-611l-246,-1369l-702,-418l-1732,-2726l-648,-486l-1362,-61l-2092,-1636l-330,-259l-1362,-1068l-178,-139l-2395,-1873l-3033,-2370l1491,127l450,1063l739,363l1233,255l1389,-671l401,-215l1158,-145l544,335l774,-16l706,-657l392,-813l1471,-288l1201,-478l806,-1585l28,-156l-162,-727l508,-1208l44,-263l-15,-1547l92,-566l495,-1816l-496,-1726l51,-748l-399,-841l-311,-1157l-243,-1433l-266,-1762l-1133,-1347l-847,-111l611,-829l333,-569l1078,369l647,-714l-1134,-1033l888,10l730,-1081l1831,-2614l565,-335l1444,-2107l310,-60l1427,1037l655,41l1980,580l1074,-802l353,-958l-781,-2484l-892,-9l-935,-648l-557,150l-637,-1659l-571,-592l-281,-1336l132,-1302l-1202,-1436l-304,-633l1284,2l140,-712l1067,-767l-275,-808l928,-1214l1215,22l936,-1485l-532,-271l-520,-1531l1315,-572l378,-1070l299,-1729l1204,-1058l1299,2l316,-306l1401,302l108,-673l661,-78l678,1482l360,1708l-235,679l363,1917l-122,1170l508,801l-80,646l-946,756l-425,3043l-589,1113l567,1402l976,710l870,1737l474,1545l428,1371l799,936l629,2696l-175,257l825,1916l1151,882l1194,134l1357,661l963,199l40,14l1680,1195l1269,-343l1251,1671l1792,1078l732,23l369,605l267,576l1330,1947l1595,626l263,-279l1767,676l1163,-161l1489,-1019l340,-245l634,118l1433,665l1003,-160l1548,350l777,1007l287,1434l391,2264l-1311,1397l-707,369l-473,1919l213,447l-198,2501l907,722l358,892l1526,1355l168,1283l-908,2950l-29,67l-604,2006l866,1211l-51,1382l-770,426l-157,248l-221,1402l436,532l868,879l654,1003l689,947l502,928l-120,971l504,624l164,214l540,513l663,1135l261,-379l704,90l1272,301l710,134l759,849l22,796l1380,443l58,65l434,650l349,538l58,33l266,336l724,997l-377,450l-316,456l400,1127l188,273l-2358,4l-283,426l-1513,-52l-410,-657l-2240,546l-1539,780M-450339,-13380l448,-636l1222,729l-1197,626l-473,-719M-446416,-29727l585,-589l1041,737l30,2254l-1102,-822l-554,-1580Z" /><path id="27" d="M-355702,-88428l-123,-37l-695,-358l-713,-272l-1037,394l-180,-24l-1056,-198l-378,-117l-449,-44l-949,-493l167,-600l-97,-102l-745,-169l-958,-1293l-644,-443l-470,-50l-975,-394l-1245,-690l-748,388l-971,126l-830,40l-570,-1010l-428,181l-757,519l-55,-5l-299,615l-783,-189l-293,498l-309,-114l-493,744l-1171,1244l-1235,598l-85,73l-1108,-428l-607,679l-563,895l-708,-863l-1205,-1621l-654,-612l-802,-167l-641,-774l-812,-797l227,-232l99,-637l1272,-244l745,-739l1092,-245l519,-399l557,-593l1174,-196l95,-199l872,-604l1064,-94l1695,-826l702,-671l925,-161l1803,-1090l51,-468l10,-51l294,-500l354,-228l322,-309l55,-104l1245,-761l188,-55l179,-4l371,135l593,-440l253,-1144l726,-88l25,13l910,-737l945,1523l418,805l2281,2133l686,1098l582,851l494,676l655,771l661,265l1652,1972l339,449l521,846l863,724l471,549l440,752l538,908l886,1508l-823,307l-1158,225l-582,227l-1308,169l-304,-217Z" /><path id="51" d="M-549984,-95051l-8688,708l-2893,239l-1158,96l-3996,334l-824,-390l-658,1601l-1754,125l-643,514l206,841l-1646,1775l-2124,618l-13,664l-1754,361l-405,2297l-532,1198l449,1871l-1902,2584l-648,2836l-1647,2827l-765,462l-752,-1095l109,-1624l-919,-1506l-841,-559l31,-716l887,-1895l-361,-815l76,-1531l-1029,-1664l283,-1053l-478,-1086l1089,-88l-1135,-865l-6855,-46l-12943,67l-11614,-21l1139,-1214l-866,-1723l265,-1563l-990,-84l121,-697l630,-623l-285,-700l1047,-1708l-976,-879l667,-1433l-323,-1391l-447,-614l316,-2454l915,-1129l-190,-678l42,-2789l-737,-2195l1213,-14l4284,-47l5405,23l685,-1039l2323,-19l1825,-267l-29,-1171l625,-989l-172,-853l-1765,-1588l120,-2631l1147,-692l48,-1147l796,-877l130,-1279l1074,-964l-1683,-2578l-812,-193l-883,-3410l-661,-80l-843,-1097l-656,-1807l-384,-606l-163,-1361l-2443,-1170l-771,-1213l2366,-1007l218,-1427l678,-565l-975,-1029l270,-2183l1800,-3069l286,-4765h-3307l3362,-3771l654,-7923l7049,-127l6835,-284l3551,-147l1084,563l149,-1043l-368,-1477l-921,-745l-366,-1560l-40,-1878l848,-1034l-69,-1439l1522,-1712l2503,-1604l1130,661l1311,-1150l596,-625l81,-895l822,-884l1551,-708l672,484l2611,463l1308,1217l58,791l1064,472l1527,2245l1467,-226l740,437l620,-430l1540,600l353,514l2072,476l584,-870l1109,-102l904,-614l1805,-367l11,-7l971,-1186l2060,-552l1607,-1066l19,-24l1937,412l825,-149l1140,1040l1636,509l810,-117l1999,-1810l1108,561l1152,-101l531,1386l502,49l1530,1776l1400,405l-238,-4072l-533,-115l-987,-299l-958,-2131l1141,-189l634,-661l1617,228l1264,-624l822,478l1661,-148l1655,-266l-917,2683l-712,529l-52,1128l-16,958l448,1259l-201,815l1058,1882l523,318l451,2125l850,267l151,249l816,405l1171,1352l-175,511l1034,681l233,318l-866,1196l115,647l1359,791l736,959l1107,451l1067,1879l2448,79l374,477l918,138l1124,1707l-128,1072l817,615l75,1600l441,1514l1133,1083l1842,749l112,152l628,-687l1888,1225l-25,811l1254,3119l-337,1145l879,2654l685,441l13,1806l-337,1892l651,371l498,1771l951,853l528,1148l403,2860l598,1733l-1117,412l-612,1716l-162,530l765,1398l-201,2323l-377,61l-8,2260l429,1063l-470,256l-310,1316l536,499l-64,959l-688,371l390,2314l354,1615l550,842l-231,1355l620,1794l-329,916l2,11l619,505l677,2044l556,503l198,1991l957,1201l778,1942l-6212,406l-4583,277l-9524,652l-3626,254l-5141,371l-4556,342l-5178,391l-5067,361l-3849,307Z" /><path id="23" d="M-413030,-34922l-642,-695l330,-1223l949,-288l-376,-1128l312,-708l168,-717l460,-499l697,-318l-262,-712l413,-595l-6,-7l-207,-1431l-291,-423l-291,-1011l-622,-1058l648,-918l-753,-913l171,-535l-164,-596l1279,-1563l416,-651l1511,-806l173,-950l-253,-1720l72,-551l220,-1485l-21,-1219l363,-2089l-327,-734l486,-589l55,-1188l731,-1171l-108,-1593l534,-993l263,-762l2333,-567l447,-802l617,98l-545,-1321l-344,-1432l-467,-1324l-176,-1076l901,-487l882,380l1013,129l870,-552l1564,-30l961,362l152,-14l1481,129l1412,-1012l542,-559l852,127l156,-1013l532,-357l199,-70l1056,-496l1199,-534l439,-528l96,-866l750,449l520,-329l39,14l673,937l751,857l1025,386l21,43l321,432l1336,2437l-50,831l-656,318l-242,363l-436,-64l180,1425l-40,15l-910,521l-2,836l933,634l578,647l-384,255l-202,507l234,786l420,981l-36,-26l723,1108l-241,656l-79,627l507,700l537,1016l612,641l652,-204l647,119l227,556l887,713l42,143l1007,1697l-242,825l550,497l1256,1220l894,1841l264,197l-1,733l-17,44l631,1486l479,177l369,1265l1732,405l207,49l895,229l1042,267l-732,1311l-2147,556l-625,274l-1664,1909l-756,447l-3026,2796l-756,949l-1785,1834l-620,1166l-1238,108l-648,142l-1542,1336l-1220,755l-452,620l-908,44l-1002,805l-922,1067l-1223,362l-1713,1041l-1704,823l-2214,1305l-2429,547l-1849,-4l-17,-3l-831,90l-1351,-430l-1703,-24l-3413,-521l-1695,137l-515,-341l520,-504l98,-821l-613,-1248l-922,-1713l904,-360l210,-1063Z" /><path id="50" d="M-575168,-221736l1966,-720l2705,136l2057,-691l1621,783l1128,162l657,1092l1105,224l471,-1047l1367,-985l3660,-89l764,-971l431,-1676l1100,-1410l-523,-1597l691,-3001l577,-886l346,-1373l-559,-1046l300,-1447l941,-890l-100,-2001l434,-573l1409,-175l1997,-16l3785,1628l2570,-1006l1406,-1371l1172,692l850,1340l10,630l319,1148l205,590l704,1848l1980,841l473,759l783,1584l26,1216l872,1133l1364,762l830,493l874,311l1121,812l227,304l314,730l1256,755l2930,1703l1990,1178l643,706l729,1426l1296,1278l281,735l1055,936l-464,1074l451,662l949,103l1011,1566l-186,1388l1072,1468l588,796l901,271l-113,1896l597,1314l76,51l1488,1533l753,1094l2341,755l1082,1838l7,109l10,1790l-340,1157l-47,989l1076,1015l-44,1228l-1570,1599l-3564,1472l-908,177l-1529,247l-1601,655l-885,843l-1387,171l-1037,1035l-1507,185l-781,851l-900,681l-2462,-162l-1253,462l-477,325l-438,634l1264,1264l796,605l-619,524l-1445,118l-578,-506l-766,359l-435,2295l709,501l-1655,266l-1661,148l-822,-478l-1264,624l-1617,-228l-634,661l-1141,189l958,2131l987,299l533,115l238,4072l-1400,-405l-1530,-1776l-502,-49l-531,-1386l-1152,101l-1108,-561l-1999,1810l-810,117l-1636,-509l-1140,-1040l-825,149l-1937,-412l-19,24l-1607,1066l-2060,552l-971,1186l-11,7l-1805,367l-904,614l-1109,102l-584,870l-2072,-476l-353,-514l-1540,-600l-620,430l-740,-437l-1467,226l-1527,-2245l-1064,-472l-58,-791l-1308,-1217l-2611,-463l-672,-484l-1551,708l-822,884l-81,895l-596,625l-307,-723l717,-919l-101,-1003l1473,-3026l1193,-1018l-1035,-73l-2084,-6588h470l93,-1352l-729,-4l-3481,-7243l2723,-2123l-3095,-1941l720,-881l234,-1341l767,-554l-166,-1649l549,-966l935,-415l-948,-515l1001,-270l-695,-703l952,-411l-327,-1030l134,-1878l-680,-505l663,-393l-1069,-2455l764,-1212l-846,-1607l536,-320l-789,-2124l2474,-503l1376,436l933,-782Z" /><path id="15" d="M-481416,-7542l-300,-622l-1222,-1033l-1158,139l-651,319l-314,1230l650,3387l665,1091l-542,759l-3149,-227l-1742,203l-2467,993l-2180,-612l-560,650l797,1006l-381,881l-2352,127l-674,756l663,909l1447,928l-846,824l-3160,-941l-2786,178l-49,573l1363,1366l-362,1016l-609,-162l-926,766l-1838,-729l-1431,-3108l-467,-631l-451,-407l-987,-782l-2313,-887l-1436,-1393l-897,-195l-1397,-1826l-847,-1737l-1630,-1771l-880,-1451l-169,-2677l-780,-772l-1089,-260l-783,406l-1454,-892l-93,688l-2127,303l-871,632l-354,2224l-556,-264l137,1454l-378,1372l-1048,-108l-554,885l112,1821l-1519,1282l-966,438l-507,1757l-1109,1619l2,637l-812,1227l280,2186l416,792l-819,850l-2239,1648l-477,2044l571,203l-316,805l-915,-228l-82,1107l-1681,555l-1863,299l-82,473l-1927,369l-344,1154l-2546,1563l-1182,-168l-1060,377l-1429,-88l-112,1984l-553,652l482,1629l-1079,2337l-1007,1305l326,657l-1785,-1161l-76,554l-1234,-856l-668,443l-571,-1192l-1200,341l-2145,-438l-132,-2l-2013,1269l-540,-27l-740,-1899l-409,319l-477,-1025l912,-296l1480,-2059l-404,-363l440,-980l-1050,-589l-1716,642l-958,-164l-1816,723l-1332,-515l-1320,201l-828,-788l-486,469l-1167,-236l-1071,931l-174,673l-1429,-782l-777,479l-1260,-911l-119,-977l-694,-869l-1377,-450l-1419,452l-56,-367l-1844,-568l-171,-1287l-1281,-40l-621,751l-1954,-364l145,-551l-1387,-199l548,-888l-644,-1153l-1881,364l-216,-843l-1273,-231l-376,433l2,-9661l5,-2745l311,-670l-56,-2695l1450,-944l-106,-1709l714,-1048l2295,-1746l53,-1364l1122,-1191l591,169l1015,-1020l1228,1348l675,-730l-329,-1603l390,-656l1350,-409l427,-703l699,48l375,-917l865,144l2347,-1562l948,399l1761,-855l541,-1356l1694,-979l1111,44l-131,-1626l819,-385l935,361l585,373l1132,-367l1855,1197l1330,565l-1084,-1834l-1874,-933l-700,-1578l591,-223l-3658,-7864l-422,-900l-1037,-2296l-422,-962l-3942,-8431l-2354,-4989l-2750,-6000l-4061,-8749l-1606,-1406l-545,-1652l472,-1274l992,-776l1603,-2159l371,-1451l1,-16l765,-462l1647,-2827l648,-2836l1902,-2584l-449,-1871l532,-1198l405,-2297l1754,-361l13,-664l2124,-618l1646,-1775l-206,-841l643,-514l1754,-125l658,-1601l824,390l3996,-334l1158,-96l2893,-239l8688,-708l3849,-307l5067,-361l5178,-391l4556,-342l5141,-371l3626,-254l9524,-652l4583,-277l6212,-406l1339,3084l8,1012l523,1422l709,583l1043,1496l112,178l1670,2072l920,170l1106,1658l822,1286l502,1267l661,388l623,1758l454,1944l83,1530l66,650l-1816,1356l-187,409l-170,1185l1140,1322l776,1675l-74,669l3,891l-160,1153l1261,821l458,340l1844,602l1869,849l326,1728l76,129l1259,1276l1245,59l-604,1436l448,547l1033,491l-467,933l1018,567l-591,1108l163,1103l1034,179l341,1059l-1899,1061l-454,939l-680,-53l-1552,-145l-1585,733l3033,2370l2395,1873l178,139l1362,1068l330,259l2092,1636l1362,61l648,486l1732,2726l702,418l246,1369l285,611l1235,620l1065,1240l581,2570l-77,403l898,875l42,996l1321,751l433,1256l924,824l266,981l-312,1024l915,478l-800,1112l635,951l993,226l51,701l824,144l-165,615l-36,577l231,1394l1330,1194l201,1051l398,1344l124,838l-990,248l-52,647l1040,144l499,1044l-148,1454l724,1401l-579,554l575,799l407,958l-312,856l-989,-590l-141,1940l-1298,-1359l-1317,-38l-267,1531l-355,-808l-1051,-161l403,1272l-332,411l-1667,-697l-400,1238l-1066,-1126l-481,1474l-727,-804l-286,1182l-685,-882l-142,894l-872,251l-1244,431l-397,-526l-484,650l-72,-1468l-499,1227l-583,403l-183,-1217l-234,-85l-12,1042l-1235,-42l-1609,399l-599,-1198l-744,267l-902,-947Z" /><path id="17" d="M-481437,-131525l-262,-1478l954,613l1077,-760l1686,-140l1185,-1392l574,995l-428,1503l480,1148l484,-133l37,-634l875,-69l846,-752l1115,-23l290,521l2449,748l1527,702l1042,984l1152,-7l1808,-13l87,354l279,1134l441,-290l95,-1393l2514,727l-2150,-367l456,1908l-143,1882l985,717l-684,-27l-234,1297l-816,272l4,2501l-177,509l761,1077l-682,780l434,500l-410,645l708,620l-539,556l2172,67l636,3l-319,180l-2369,998l-896,-148l-848,575l-358,919l69,1062l2114,3264l743,42l68,1228l543,115l786,1799l3074,1645l220,1329l989,646l-242,1032l-205,-846l-1527,-243l-142,-1068l-602,122l-413,1082l-108,673l-1401,-302l-316,306l-1299,-2l-1204,1058l-299,1729l-378,1070l-1315,572l520,1531l532,271l-936,1485l-1215,-22l-928,1214l275,808l-1067,767l-140,712l-1284,-2l304,633l1202,1436l-132,1302l281,1336l571,592l637,1659l557,-150l935,648l892,9l781,2484l-353,958l-1074,802l-1980,-580l-655,-41l-1427,-1037l-310,60l-1444,2107l-565,335l-1831,2614l-730,1081l-888,-10l1134,1033l-647,714l-1078,-369l-333,569l-611,829l847,111l1133,1347l266,1762l243,1433l311,1157l399,841l-51,748l496,1726l-495,1816l-92,566l15,1547l-44,263l-508,1208l162,727l-28,156l-806,1585l-1201,478l-1471,288l-392,813l-706,657l-774,16l-544,-335l-1158,145l-401,215l-1389,671l-1233,-255l-739,-363l-450,-1063l-1491,-127l1585,-733l1552,145l680,53l454,-939l1899,-1061l-341,-1059l-1034,-179l-163,-1103l591,-1108l-1018,-567l467,-933l-1033,-491l-448,-547l604,-1436l-1245,-59l-1259,-1276l-76,-129l-326,-1728l-1869,-849l-1844,-602l-458,-340l-1261,-821l160,-1153l-3,-891l74,-669l-776,-1675l-1140,-1322l170,-1185l187,-409l1816,-1356l-66,-650l-83,-1530l-454,-1944l-623,-1758l-661,-388l-502,-1267l-822,-1286l-1106,-1658l-920,-170l-1670,-2072l-112,-178l-1043,-1496l-709,-583l-523,-1422l-8,-1012l-1339,-3084l-778,-1942l-957,-1201l-198,-1991l-556,-503l-677,-2044l-619,-505l-2,-11l329,-916l-620,-1794l231,-1355l-550,-842l-354,-1615l-390,-2314l688,-371l64,-959l-536,-499l310,-1316l470,-256l-429,-1063l8,-2260l377,-61l201,-2323l-765,-1398l162,-530l612,-1716l1117,-412l768,2115l1287,1570l1637,970l-734,-866l218,-818l-514,-337l-660,-1941l1641,-1116l2379,-719l5405,-2972l127,1162l1179,2723l1200,937l384,-1138l1031,-540l964,1408l95,138l1352,-1178l26,-628l878,-271l688,-1132l-42,-1891l640,1742l436,-15l136,-1398l2266,1107l886,172Z" /><path id="28" d="M-378330,-114822l330,-392l1270,-472l407,505l537,-341l1231,291l878,645l266,163l809,1527l1057,1280l1199,2043l1819,2131l1798,1134l1867,944l903,395l-910,737l-25,-13l-726,88l-253,1144l-593,440l-371,-135l-179,4l-188,55l-1245,761l-55,104l-322,309l-354,228l-294,500l-10,51l-51,468l-1803,1090l-925,161l-702,671l-1695,826l-1064,94l-872,604l-95,199l-1174,196l-557,593l-519,399l-1092,245l-577,-726l575,-3171l1014,-142l1113,-1140l112,-1007l139,-624l-30,-932l254,-492l-961,-429l-83,-622l324,-738l90,-832l-36,-883l-1626,-683l-696,563l-1028,-172l-696,-71l-223,-831l265,-1228l297,-118l746,-830l591,-1558l656,-176l-129,-1442l120,-45l1492,-1343Z" /><path id="14" d="M-597090,41619l-229,1245l621,888l-670,489l-2344,797l-1900,138l907,993l986,4580l-1150,616l-285,1151l-871,157l-2287,-897l-2495,549l-84,-395l1068,-2342l-700,-744l-986,-1307l-1967,-982l139,-705l-642,-694l-1514,-324l-1756,490l466,-642l-662,-505l-1670,-114l33,-842l-495,-700l-2381,-226l-206,-630l-2503,-86l-758,-821l-2205,961l-1002,70l-780,-523l80,-772l-2173,-157l-384,-1408l606,-851l-229,-1333l-822,633l-1176,-1265l-1219,756l-232,1041l-1100,241l-104,1002l-1758,640l-228,-775l-984,-535l-1276,1331l-249,-713l-1836,384l-1169,-780l-1655,2322l-1627,587l-2069,-553l-1317,122l-934,1479l-556,252l-391,-965l488,-1375l1774,-955l1379,-1791l1392,-693l1463,-1571l412,-800l157,-1417l-953,-2514l1389,-1589l557,-1120l290,-1634l-744,-1429l1006,-330l1142,225l972,-544l1569,152l1268,-542l524,501l566,-725l-154,-1681l953,-571l1388,67l1138,-1464l1852,17l1353,-826l-253,-2338l-767,-1087l690,-617l963,-914l1189,-3544l495,25l289,-1278l-420,-825l217,-991l-753,-1017l196,-2315l723,-646l-63,-1717l434,-1323l834,-780l61,-934l782,-742l-65,-1258l595,-260l-1298,-2223l317,-878l-703,-700l-1296,209l-236,-775l1144,-614l1367,-1555l1336,-614l1080,-1044l1209,-2537l567,-57l419,205l1930,-675l1303,-1309l-636,1456l-808,386l-97,933l859,2393l-379,842l452,2236l775,997l2245,931l198,629l1435,-141l2628,-1839l430,-1347l951,-420l1337,42l378,878l1864,629l63,509l-895,1169l1024,2563l-82,826l703,915l902,1474l1020,2364h6044h2413h2968l-2,9661l-212,860l-663,-108l-2691,829l-773,1266l-841,371l-1191,1647l-1586,405l410,882l-737,-40l-106,1588l-59,2932l-1584,713l13,1181l-904,1972l39,2492l758,2830l1031,1441l-351,867l350,683l-673,531l2041,1393l-105,521l1011,618l619,1293l-1382,1235l357,628l-904,293Z" /><path id="26" d="M-381201,-78190l-113,232l-905,-246l-649,-98l-241,911l-441,607l-792,-421l-229,24l-1365,-362l-1215,1324l-21,-43l-1025,-386l-751,-857l-673,-937l-39,-14l-520,329l-750,-449l-96,866l-439,528l-1199,534l-1056,496l-199,70l-532,357l-156,1013l-852,-127l-542,559l-1412,1012l-1481,-129l-152,14l-961,-362l-1564,30l-870,552l-1013,-129l-882,-380l-901,487l-248,-742l-1038,-406l-626,-473l931,-1777l-518,-1034l1187,-567l110,-1432l-168,-357l-150,-331l0,-1l-1354,-1946l-718,-290l28,-422l-817,-744l-651,-756l-516,476l-1710,-1352l-570,-994l-1518,-743l800,-277l1646,315l103,-766l1444,-616l1080,-1122l300,-1257l1511,-1062l-973,-2593l531,1l909,-376l2051,1308l617,-249l469,1015l363,1931l644,186l789,-465l1250,505l265,49l1040,1182l-186,1079l2197,439l-155,1240l428,12l1699,669l1193,453l842,-363l441,-1265l1640,-213l1121,-729l975,200l1484,-778l129,-564l833,-386l399,1269l1006,-353l-442,-943l1105,-772l800,472l106,-1584l753,-1814l812,797l641,774l802,167l654,612l1205,1621l708,863l563,-895l607,-679l1108,428l85,-73l1235,-598l1171,-1244l493,-744l309,114l293,-498l783,189l299,-615l55,5l757,-519l428,-181l570,1010l830,-40l971,-126l748,-388l1245,690l975,394l470,50l644,443l958,1293l745,169l97,102l-167,600l949,493l449,44l378,117l1056,198l180,24l1037,-394l713,272l695,358l123,37l304,217l1308,-169l582,-227l1158,-225l823,-307l225,516l274,774l150,941l396,814l398,448l475,1979l323,1414l198,702l483,1106l325,854l-131,1140l-40,287l-31,1286l143,1392l-199,90l-1313,396l-3,380l-1684,695l-1264,48l-527,-276l-97,-67l-203,-208l-715,-280l-605,-131l-70,-286l-251,-1326l-925,-174l-604,-411l-1100,-368l-354,-92l-557,-167l-624,-237l-599,-228l-183,26l-1052,260l-898,201l-469,-676l-1359,213l-469,-1060l-902,148l-361,-344l-393,-119l-167,-1632l-584,-446l-1008,-341l-1205,-633l-462,-461l-661,95l-1396,1193l160,454l-54,1013l-2006,751l1795,1484l187,204l18,629l-108,189l-369,627l1186,1187l536,196l5,3l398,211l-283,718l-395,243l-1237,699l-838,354l-533,-152l-717,-673h-461l-899,-828l-501,-496l-481,-368l-1150,-713l-108,-121l-76,-165l-139,-314l-1361,-409l-545,-681l-429,-128l-688,67l-506,-467Z" /><path id="33" d="M-431306,-220350l-6,58l-965,4l-989,210l-201,40l-903,-562l-1544,42l-770,-303l-405,103l-555,126l-2127,-832l-2023,-821l-98,-119l-707,-276l-997,140l-975,-36l-866,-747l-1182,-482l-40,78l-1376,-210l-59,-106l0,-13l1212,-1159l423,-824l1815,-119l1031,32l192,233l1157,-153l608,-688l-1525,-1717l-1765,-17l-1349,-581l-92,-93l-1532,-677l-325,-1808l-582,-400l1584,-1649l1412,100l472,655l-1169,1038l-685,-135l526,1476l1475,269l1762,1053l-21,-1082l976,324l837,-361l1598,918l1253,263l846,-13l2336,-1361l2769,382l1183,511l57,586l-1113,955l582,821l1757,351l130,-335l-7,-170l-768,-1128l-70,-977l966,-232l3314,198l412,195l2596,18l1004,-38l2439,64l679,1103l-41,932l-179,1315l122,356l1614,1455l1287,1170l1467,654l3266,972l820,419l1298,744l222,1100l-663,2933l-208,1202l1073,1378l6,587l-444,500l-1317,237l-1391,-127l-1934,373l-881,295l-878,299l-714,383l-169,1618l-77,707l-337,727l-694,226l-301,114l-535,-281l-15,-496l-462,-919l-1751,-385l662,-490l47,-72l-384,-446l-560,-570l-208,-285l-73,-609l-216,-1166l-114,-51l-398,-846l208,-595l-914,-957l-67,-90l-169,-484l1030,-744l-1111,-339l-820,-364l-35,-14l-1428,-602l-593,-269l-2443,-1174l-926,-421l-1401,-716l117,694M-431549,-227942l0,1h-1l1,-1M-437930,-230639l1252,108l12,105l-1265,-189l-1802,162l190,-417l1613,231M-441317,-231874l-1017,967l-1396,-775l390,-559l2023,367Z" /><path id="13" d="M-617133,-86879l1302,-1108l11614,21l12943,-67l6855,46l1135,865l-1089,88l478,1086l-283,1053l1029,1664l-76,1531l361,815l-887,1895l-31,716l841,559l919,1506l-109,1624l752,1095l-1,16l-371,1451l-1603,2159l-992,776l-472,1274l545,1652l1606,1406l4061,8749l2750,6000l2354,4989l3942,8431l422,962l1037,2296l422,900l3658,7864l-591,223l700,1578l1874,933l1084,1834l-1330,-565l-1855,-1197l-1132,367l-585,-373l-935,-361l-819,385l131,1626l-1111,-44l-1694,979l-541,1356l-1761,855l-948,-399l-2347,1562l-865,-144l-375,917l-699,-48l-427,703l-1350,409l-390,656l329,1603l-675,730l-1228,-1348l-1015,1020l-591,-169l-1122,1191l-53,1364l-2295,1746l-714,1048l106,1709l-1450,944l56,2695l-311,670l-5,2745h-2968h-2413h-6044l-1020,-2364l-902,-1474l-703,-915l82,-826l-1024,-2563l895,-1169l-63,-509l-1864,-629l-378,-878l-1337,-42l-951,420l-430,1347l-2628,1839l-1435,141l-198,-629l-2245,-931l-775,-997l-452,-2236l379,-842l-859,-2393l97,-933l808,-386l636,-1456l-1303,1309l-1930,675l-419,-205l-567,57l-1209,2537l-1080,1044l-1336,614l-1367,1555l-1144,614l236,775l1296,-209l703,700l-317,878l1298,2223l-595,260l65,1258l-782,742l-61,934l-834,780l-434,1323l63,1717l-723,646l-196,2315l753,1017l-217,991l420,825l-289,1278l-495,-25l-1189,3544l-963,914l-690,617l767,1087l253,2338l-1353,826l-1852,-17l-1138,1464l-1388,-67l-953,571l-210,-624l-2050,-291l-1833,-1373l-1909,86l-860,-622l-176,-2789l-1218,-1302l-1042,-559l-243,-696l-838,81l629,1148l-474,109l-2511,-2275l-1116,-729l-628,668l-1272,-726l-639,-1111l-958,442l-964,-2473l-1012,334l-1078,-1176l210,-643l-1526,-1127l-479,749l946,1522l-741,1221l-1719,51l-1507,-668l-734,-1202l-1003,-80l-791,-584l-577,329l-1145,-285l-5384,4760l-2323,-624l-664,1525l660,305l124,1207l-615,1366l-11,1544l-550,933l-698,20l-701,1238l-372,2391l-1709,-657l-1163,-1614l-899,440l-1361,-1413l-324,-750l-1024,11l-1266,1524l-582,111l-805,-1474l1219,-1085l-12300,-11l-1414,501l-1017,-540l-2093,-91l-9,-6372l1440,418l-9,-433l3821,134l1570,-1482l170,-1706l-432,-296l749,-960l-839,-374l-1497,81l-1143,1216l-1336,-820l-904,96l-1354,-727l-2235,-283l-6,-4946l-75,-2566l1530,-1489l568,1l1080,-989l1252,-619l490,-1372l-613,-951l956,-1930l999,-807l282,-1065l-307,-1165l324,-1380l-532,-1740l-1581,-8804l-2278,-12673l-1063,-5937l-1074,-822l106,694l-897,93l-704,-728l-881,702l29,1146l-1474,403l-1155,-54l-1238,-590l-908,360l-1698,-2198l-3369,-52l-315,-628l-2021,89l-909,-887l-1870,435l-1377,-455l-281,-792l-948,-143l-598,-826l-1702,-928l-537,195l-879,-1198l-1855,-856l-74,-443l-1284,-303l-1341,-868l8,-1453l-928,-2029l-340,-2236l-1557,-1499l-884,-1783l-61,-1081l842,-1225l551,-1431l-1200,-1651l-1262,-88l-276,-427l-1576,-484l-1006,-692l-1241,-1854l-358,-1741l497,-179l8481,-3067l3155,-1143l4152,-486l2242,-262l5643,-656l2926,-339l5733,-661l4602,-527l2531,-2159l3576,-3055l2314,-1980l2916,-2498l2741,-2351l4273,-1934l2431,-1099l4599,-2082l1914,-316l1905,-834l3247,-1421l2009,1531l1088,313l1082,1331l-165,936l2353,-275l2033,212l1452,-1169l951,-330l506,1117l913,376l1560,-448l-81,1469l467,-279l1231,760l586,-154l689,-1678l894,447l1338,1818l-202,957l693,1124l628,266l1967,-309l704,394l2173,482l121,-676l1695,514l-13,2021l1076,494l552,1129l571,214l-500,809l291,1472l733,424l796,-444l426,1253l1268,1783l17,531l7429,6l1970,-1344l298,-1273l980,-603l339,-868l530,450l1047,-588l-53,-951l766,-1455l239,625l772,-140l634,-2111l939,20l409,-730l886,98l651,1302l1232,448Z" /><path id="53" d="M-479386,-160499l2550,1l3751,-2l-15,137l-587,331l-100,1190l639,1361l-61,1615l-1718,847l-5616,-3l-1457,-1l-349,-1577l269,-579l-738,-1127l304,-1251l-264,-939l1930,-1h670l792,-2Z" /><path id="32" d="M-402744,-203200l595,774l231,1881l373,424l997,1973l1431,1278l1009,374l803,1812l414,1635l-302,2079l-272,3908l183,1879l604,1811l-2440,1582l-3086,1974l-20,12l-1460,575l-1586,310l-1350,-1208l-1365,558l-1039,-293l1291,-1214l18,-483l-1202,470l-1602,-562l-1070,-1431l147,-971l-376,-343l1588,-177l-28,-703l-251,-1066l1094,-565l247,-1248l-1086,-217l-1214,392l-856,7l-108,-565l1061,-368l721,-542l42,-1117l965,-656l289,-1006l31,-285l246,-576l-587,-1148l-58,-817l-745,179l98,-831l-1316,-1017l-61,-950l-124,-1243l-844,-507l-265,46l-112,-788l-1028,-1897l-37,-13l-2504,4l-908,1l-182,-532l-471,-508l-374,-620l229,-362l332,-131l39,-548l-259,-63l211,-551l-464,-1528l-240,-747l301,-114l694,-226l337,-727l77,-707l169,-1618l714,-383l878,-299l881,-295l1934,-373l1391,127l1317,-237l444,-500l349,1109l677,626l492,1318l509,1314l571,298l1303,694l1937,2297l1028,2155Z" /><path id="12" d="M-679768,-93527l-2431,1099l-4273,1934l-2741,2351l-2916,2498l-2314,1980l-3576,3055l-2531,2159l-4602,527l-5733,661l-2926,339l-5643,656l-2242,262l-4152,486l-3155,1143l-8481,3067l-497,179l791,-1140l-38,-1133l-2337,-139l476,-1189l-767,-617l1594,-1782l1355,-533l115,-773l-886,-176l217,-880l1161,-1094l912,-2829l2063,-1340l-97,-1429l886,-729l997,-144l241,-669l714,-1346l590,-81l600,-1567l-2731,-3399l4960,-3l1991,-793l1771,-171l874,-1138l-46,-1295l1042,-450l-272,-2030h8031l1696,475l1303,1246l832,104l1236,1500l3088,2387l569,65l-932,-1850l616,-1585l-803,-630l2,-2431l76,-3531l-76,-2884l-9,-2856l909,639l889,-1039l1238,-314l1133,157l2455,1262l1483,27l712,-487l3122,479l1909,-134l3205,-817l1635,30l325,-1269l1731,342l558,605l990,103l1488,828l433,992l923,852l264,876l752,374l1378,77l1598,-597l1373,1909l1308,616l127,565l1130,140l-52,587l1285,-213l1852,1103l1037,1183l2717,2134l-1834,800l-3247,1421l-1905,834l-1914,316l-4599,2082Z" /><path id="11" d="M-628922,-128588l978,-1364l1337,257l481,-718l1949,-776l1392,-366l637,442l996,-524l-5,-948l2283,-1823l703,-866l2382,175l1090,-454l2216,590l540,-401l1853,300l900,-419l392,-692l1705,-755l771,1213l2443,1170l163,1361l384,606l656,1807l843,1097l661,80l883,3410l812,193l1683,2578l-1074,964l-130,1279l-796,877l-48,1147l-1147,692l-120,2631l1765,1588l172,853l-625,989l29,1171l-1825,267l-2323,19l-685,1039l-5405,-23l-4284,47l-1213,14l737,2195l-42,2789l190,678l-915,1129l-316,2454l447,614l323,1391l-667,1433l976,879l-1047,1708l285,700l-630,623l-121,697l990,84l-265,1563l866,1723l-1139,1214l-1302,1108l-1232,-448l-651,-1302l-886,-98l-409,730l-939,-20l-634,2111l-772,140l-239,-625l-766,1455l53,951l-1047,588l-530,-450l-339,868l-980,603l-298,1273l-1970,1344l-7429,-6l-17,-531l-1268,-1783l-426,-1253l-796,444l-733,-424l-291,-1472l500,-809l-571,-214l-552,-1129l-1076,-494l13,-2021l-1695,-514l-121,676l-2173,-482l-704,-394l-1967,309l-628,-266l-693,-1124l202,-957l-1338,-1818l-894,-447l-689,1678l-586,154l-1231,-760l-467,279l81,-1469l-1560,448l-913,-376l-506,-1117l-951,330l-1452,1169l-2033,-212l-2353,275l165,-936l-1082,-1331l-1088,-313l-2009,-1531l1834,-800l4136,637l613,487l1699,-232l962,563l1817,-113l766,-730l735,48l1107,1627l865,-509l682,-1455l-443,-786l442,-2756l-1030,-1545l103,-547l-482,-518l246,-1597l615,-590l-189,-1020l869,-696l247,-1133l-380,-1098l-746,-530l586,-3543l930,-289l71,-2190l1143,417l198,-1613l518,-230l-100,-1055l1893,-131l511,-751l901,-178l-145,-700l1183,-421l818,-72l-3,-1209l1069,-1032l1717,-85l2711,-742l761,824l2025,-58l2476,-1113l533,-887l845,-287l2088,458l835,-2036l1149,-192Z" /><path id="16" d="M-516835,-7955l880,1451l1630,1771l847,1737l1397,1826l897,195l1436,1393l2313,887l987,782l451,407l467,631l1431,3108l1838,729l57,469l1230,239l1090,1078l-6,647l992,741l-118,2267l199,2598l-389,1878l-2381,1233l-2650,-67l-1590,1851l-154,742l-859,799l-1102,3548l-328,143l-603,2334l-669,910l-786,3765l-765,2369l275,1089l11,3253l-701,290l-656,2362l-670,1003l-2025,1869l-1425,671l-416,-789l4,-1431l401,-869l-216,-1283l-1296,-979l-179,-811l-1753,-1818l-143,-781l-2456,-3874l-1191,-1143l268,-499l-2065,-4264l-193,-1302l-1087,-1456l-1980,-929l-471,-937l-822,-197l-1119,576l-1761,-315l495,603l-1324,926l-1109,-952l-2771,578l-217,655l-1765,-1605l-1137,-172l-476,-766l-772,563l-836,-337l-2111,724l-583,1092l-1574,278l-26,1094l-1745,-263l1079,-2337l-482,-1629l553,-652l112,-1984l1429,88l1060,-377l1182,168l2546,-1563l344,-1154l1927,-369l82,-473l1863,-299l1681,-555l82,-1107l915,228l316,-805l-571,-203l477,-2044l2239,-1648l819,-850l-416,-792l-280,-2186l812,-1227l-2,-637l1109,-1619l507,-1757l966,-438l1519,-1282l-112,-1821l554,-885l1048,108l378,-1372l-137,-1454l556,264l354,-2224l871,-632l2127,-303l93,-688l1454,892l783,-406l1089,260l780,772l169,2677M-505212,20054l663,-1169l1375,590l-880,1638l-988,-173l-170,-886M-505531,21513l454,-514l851,186l-442,662l-863,-334Z" /></g></svg>